HIERARCHY
ROOT Hips
{
  OFFSET 267.745 86.9975 -272.335
  CHANNELS 6 Xposition Yposition Zposition Zrotation Xrotation Yrotation
  JOINT LeftUpLeg
  {
    OFFSET 8.64259 1.95398 -2.38835
    CHANNELS 3 Zrotation Xrotation Yrotation
    JOINT LeftLeg
    {
      OFFSET 43.7702 0 0
      CHANNELS 3 Zrotation Xrotation Yrotation
      JOINT LeftFoot
      {
        OFFSET 40.6238 0 0
        CHANNELS 3 Zrotation Xrotation Yrotation
        JOINT LeftToeBase
        {
          OFFSET 12.7242 0 0
          CHANNELS 3 Zrotation Xrotation Yrotation
          End Site
          {
            OFFSET 0 0 0
          }
        }
      }
    }
  }
  JOINT RightUpLeg
  {
    OFFSET -8.2249 1.95398 -2.59336
    CHANNELS 3 Zrotation Xrotation Yrotation
    JOINT RightLeg
    {
      OFFSET 43.5653 0 0
      CHANNELS 3 Zrotation Xrotation Yrotation
      JOINT RightFoot
      {
        OFFSET 40.6238 0 0
        CHANNELS 3 Zrotation Xrotation Yrotation
        JOINT RightToeBase
        {
          OFFSET 12.7242 0 0
          CHANNELS 3 Zrotation Xrotation Yrotation
          End Site
          {
            OFFSET 0 0 0
          }
        }
      }
    }
  }
  JOINT Spine
  {
    OFFSET 0.165834 0.87714 6.61349
    CHANNELS 3 Zrotation Xrotation Yrotation
    JOINT Spine1
    {
      OFFSET 7.38963 1.71661e-005 0
      CHANNELS 3 Zrotation Xrotation Yrotation
      JOINT Spine2
      {
        OFFSET 11.9445 1.14441e-005 0
        CHANNELS 3 Zrotation Xrotation Yrotation
        JOINT Spine3
        {
          OFFSET 14.7254 4.19617e-005 0
          CHANNELS 3 Zrotation Xrotation Yrotation
          JOINT Spine4
          {
            OFFSET 10.9679 0 0
            CHANNELS 3 Zrotation Xrotation Yrotation
            JOINT RightShoulder
            {
              OFFSET 2.46616 -1.6653 3.69651
              CHANNELS 3 Zrotation Xrotation Yrotation
              JOINT RightArm
              {
                OFFSET 13.0012 0 0
                CHANNELS 3 Zrotation Xrotation Yrotation
                JOINT RightForeArm
                {
                  OFFSET 28.7848 1.52588e-005 0
                  CHANNELS 3 Zrotation Xrotation Yrotation
                  JOINT RightHand
                  {
                    OFFSET 26.5688 1.52588e-005 0
                    CHANNELS 3 Zrotation Xrotation Yrotation
                    End Site
                    {
                      OFFSET 0 0 0
                    }
                  }
                }
              }
            }
            JOINT LeftShoulder
            {
              OFFSET 2.38034 -1.29275 -3.7523
              CHANNELS 3 Zrotation Xrotation Yrotation
              JOINT LeftArm
              {
                OFFSET 16.3182 6.10352e-005 0
                CHANNELS 3 Zrotation Xrotation Yrotation
                JOINT LeftForeArm
                {
                  OFFSET 27.0901 0 0
                  CHANNELS 3 Zrotation Xrotation Yrotation
                  JOINT LeftHand
                  {
                    OFFSET 24.5451 1.52588e-005 0
                    CHANNELS 3 Zrotation Xrotation Yrotation
                    End Site
                    {
                      OFFSET 0 0 0
                    }
                  }
                }
              }
            }
            JOINT Neck
            {
              OFFSET 5.0226 -0.0266342 0
              CHANNELS 3 Zrotation Xrotation Yrotation
              JOINT Head
              {
                OFFSET 6.69364 2.86102e-005 0
                CHANNELS 3 Zrotation Xrotation Yrotation
                End Site
                {
                  OFFSET 0 0 0
                }
              }
            }
          }
        }
      }
    }
  }
}
MOTION
Frames:	12
Frame Time:	0.0416667
-138.724 91.8083 126.582 99.3703 53.6541 88.4926 177.468 3.7908 94.3109 -59.6071 11.9559 7.13766 50.4849 -2.39068 3.75036 64.1659 -3.26708 3.58478 175.005 19.5022 91.46 -33.8917 -4.12054 2.90679 63.6302 6.64779 14.5507 21.2561 1.90323 -0.112444 -0.387901 7.57058 -91.3842 11.7092 -1.42103 -2.61005 0.0365508 -1.53446 -2.54504 -22.4791 -0.571285 -2.9162 -2.4664 -0.571283 -2.91619 101.07 -49.5525 -83.8859 29.1248 -1.73271 -0.423713 -0.262742 -15.8885 -13.886 -11.9804 -0.821941 2.88402 -81.7447 -50.2707 90.9586 -35.4716 0.723477 -14.9899 9.33678 37.8281 -17.8046 -7.27121 -0.0112505 -6.22232 6.3786 0.503964 1.29134 -19.7389 -0.691823 6.7811 
-132.42 92.7902 121.362 100.606 51.1251 84.9277 178.906 12.8612 89.3566 -61.3473 7.53431 4.47048 56.5125 2.86928 7.33904 59.2438 -2.53072 5.8406 175.698 14.0081 90.7059 -35.7376 -4.49574 0.939296 69.6183 4.20919 14.9221 22.1382 1.6455 0.0852342 0.00369008 7.70562 -91.0636 11.4528 -0.489293 -2.0701 -0.219602 -0.579926 -2.04659 -22.7416 0.155321 -2.12146 -2.72896 0.155328 -2.12145 101.05 -48.9349 -83.9313 27.6309 -3.12577 -4.1357 -1.21514 -13.5026 -19.109 -15.7032 -1.04601 2.61377 -82.144 -49.6754 90.3077 -35.1959 1.85913 -11.4587 8.34993 43.8459 -16.2085 -9.91195 -0.0177184 -5.47122 5.4348 -0.407612 0.163572 -18.2474 -0.992382 4.48813 
-126.483 93.8472 116.207 100.066 50.9905 83.6769 179.66 18.4116 86.8662 -45.483 7.50339 2.71646 58.9001 4.71031 7.46624 57.9681 -1.83668 10.1359 175.205 7.22656 89.1055 -32.2168 -4.25695 0.43638 72.3876 2.83865 14.7442 24.2011 1.08503 0.417916 0.188261 7.53623 -90.8122 11.799 -0.00737835 -1.61947 0.127082 -0.0786361 -1.61759 -22.4005 0.479627 -1.54686 -2.38788 0.479615 -1.54686 102.117 -47.3242 -82.241 27.078 -5.44834 -6.87306 -1.89629 -10.8877 -23.8783 -15.3172 -0.774987 0.660959 -82.0311 -49.808 90.4887 -34.1467 1.38788 -6.07598 7.95463 44.1856 -16.4017 -8.3 -0.0681076 -4.77371 3.58957 -1.27931 0.474223 -17.8392 -1.64763 2.49674 
-120.591 94.2248 110.914 98.7527 49.7291 83.7743 179.257 16.2426 86.5431 -13.5588 8.52191 1.29224 51.8359 0.476033 6.60971 48.9687 -1.72937 8.71194 174.974 0.434224 90.469 -28.4176 -2.64375 -0.376036 74.4418 2.09759 17.2779 24.539 0.738848 2.44977 0.474694 7.30836 -90.6094 12.2597 0.654618 -1.29056 0.588243 0.597189 -1.31813 -21.9447 1.0122 -1.03419 -1.93203 1.0122 -1.0342 103.259 -45.5638 -80.3577 27.1146 -6.83499 -8.68976 -4.03264 -11.4997 -27.5047 -11.9232 -0.480543 -0.523174 -80.7622 -48.7337 92.3659 -35.4009 -1.76243 -2.14466 8.3965 43.9658 -15.5167 -7.56659 -0.0813362 -4.5848 3.20108 -1.63982 0.762663 -18.5564 -1.9526 1.56636 
-114.546 93.8264 105.023 98.7058 47.3893 85.6111 -179.994 19.7498 88.0744 -6.88262 10.8586 2.40836 57.2821 -1.53354 1.50958 46.5581 -1.67683 7.78845 174.89 -5.41259 90.3254 -26.3364 -3.12154 -0.506808 72.1753 2.57659 20.2059 31.7765 -0.9579 3.46466 0.886563 7.14867 -90.7164 12.5852 1.41991 -1.59667 0.913963 1.34827 -1.65762 -21.6232 1.83409 -1.09612 -1.6105 1.83411 -1.09612 103.867 -44.3718 -79.3083 28.5692 -5.66713 -8.91918 -4.88255 -11.9603 -28.5142 -11.3061 -0.404858 -1.05712 -80.5779 -50.1235 92.7186 -34.1887 -6.46988 -0.687039 7.67102 44.0328 -11.9627 -8.11387 -0.0205416 -5.76557 1.43527 -1.50368 2.01667 -18.6435 -1.79766 -0.0186808 
-107.745 92.7318 97.7171 99.3978 46.7952 84.6349 179.982 18.2982 87.0656 -10.9523 12.1003 2.08619 53.8934 -1.77107 6.22365 44.4047 -1.57395 7.49492 173.877 -9.05303 88.2543 -29.9675 -7.86587 -0.990484 64.2252 5.52913 22.0368 45.6115 -3.53905 7.67273 0.914024 7.09204 -90.4294 12.6975 1.61037 -1.04843 1.02708 1.56264 -1.11829 -21.515 1.85097 -0.515867 -1.50235 1.851 -0.515865 104.238 -45.6145 -78.7436 29.5119 -4.93213 -7.66909 -3.76489 -12.0092 -25.8492 -11.8677 -0.450407 -0.79722 -79.4294 -48.9199 94.4254 -35.3697 -9.28671 -1.22807 7.45275 43.5011 -9.66676 -8.86615 -0.0672259 -4.77175 2.33735 -1.53923 -0.509922 -20.0245 -1.67893 1.66683 
-100.876 91.8535 90.4196 100.989 47.1204 82.4269 -179.27 20.0177 85.6404 -27.0957 15.051 1.98947 55.6494 -2.32338 11.4791 40.3479 -1.29915 0.605342 172.097 -7.64092 83.3484 -38.3804 -11.825 -1.02518 42.474 13.234 25.0134 41.9438 -2.84931 16.271 0.707223 7.12644 -90.0367 12.6255 1.3876 -0.234166 0.955259 1.37594 -0.295022 -21.5859 1.39378 0.193771 -1.5733 1.39381 0.193772 104.393 -46.2633 -78.5183 31.86 -3.77001 -5.74466 -2.29138 -14.6199 -19.0596 -10.0771 -0.430282 -0.20779 -79.7008 -48.0259 93.9742 -35.5238 -8.85742 -2.19834 7.37557 43.0481 -9.73808 -8.5828 -0.0788473 -4.61101 3.68105 -1.04094 -2.67242 -20.9476 -0.887314 2.16465 
-94.6592 92.0381 84.1075 103.343 47.7714 79.5682 -177.926 15.4202 84.5429 -33.4586 16.9693 1.6263 62.6085 2.55951 14.7658 37.3339 -0.930403 -0.739151 172.728 3.74802 88.4501 -58.2413 -17.3813 -1.49054 33.6786 16.9265 20.6457 21.5572 0.525272 8.66708 0.300001 7.39724 -89.7573 12.0771 0.711053 0.406253 0.406272 0.728269 0.37456 -22.1294 0.556076 0.601173 -2.11674 0.556092 0.601177 103.973 -46.4735 -79.2146 33.74 -3.35075 -4.09441 -1.59005 -17.2176 -14.8285 -7.22559 -0.298234 -0.419747 -80.2192 -48.3772 93.186 -34.5765 -6.4628 -7.54815 6.77312 43.9759 -9.55875 -7.19623 -0.109292 -3.87084 4.06991 0.289241 -2.80454 -19.4513 0.339779 3.23956 
-88.5635 93.4529 77.5358 104.244 50.4613 80.3771 -177.48 8.07013 86.3302 -31.7429 19.4387 2.79834 65.8779 5.63694 15.3248 38.3009 -1.0536 -0.372994 172.064 15.1597 87.6247 -65.2922 -15.5191 -0.429275 42.8796 12.766 17.0496 28.2015 -0.531036 7.15771 -0.125516 7.47309 -89.9491 11.9278 -0.225541 0.12582 0.256873 -0.21979 0.135612 -22.2784 -0.252912 0.0522193 -2.26578 -0.252927 0.0522068 103.791 -46.5476 -79.514 34.2715 -4.43113 -1.05662 -0.812966 -17.6716 -13.5889 -6.59462 -0.305895 0.240148 -80.024 -47.7612 93.462 -34.935 -3.72894 -16.2136 5.73224 44.8736 -8.09996 -6.54575 -0.118388 -3.60518 2.59237 1.35172 -1.87071 -18.9603 1.10314 4.12284 
-82.7499 94.4389 71.5433 104.728 53.8902 80.8823 -176.7 1.73956 89.1476 -28.8132 21.1323 3.87876 67.5947 7.68567 14.1869 40.3323 -1.29719 0.497758 170.489 21.8104 89.2299 -54.4583 -10.4015 1.77142 54.0279 7.33696 16.4195 35.457 -1.67251 1.53924 -0.512907 7.51938 -90.1509 11.8342 -1.09091 -0.184322 0.163697 -1.09799 -0.136131 -22.3746 -0.985086 -0.503699 -2.36191 -0.985075 -0.503694 103.792 -47.0141 -79.5283 34.6877 -2.55736 2.64039 -1.14288 -17.8054 -13.6661 -6.37521 -0.273487 -0.208189 -79.7576 -47.4552 93.8666 -33.3626 1.05007 -22.8697 7.1508 39.6947 -13.2747 -4.64653 -0.0965792 -4.02534 3.20356 1.72518 -1.64898 -19.4306 1.39983 4.34322 
-76.8793 94.8438 65.7709 103.646 56.4666 80.8737 -175.846 -4.24335 88.6583 -25.0136 22.1779 4.14068 67.2791 8.24459 13.0951 44.0313 -1.6797 1.90207 172.841 20.9029 87.2794 -26.072 -1.81649 2.41563 53.9934 7.87423 19.7291 36.6273 -1.91554 -0.148565 -0.678351 7.49556 -90.1366 11.8829 -1.4131 -0.121366 0.212751 -1.41708 -0.0590473 -22.3279 -1.3113 -0.540525 -2.31525 -1.3113 -0.54052 104.01 -47.4789 -79.1933 35.1663 -0.218768 4.43405 -0.678462 -18.1497 -11.3687 -5.79975 -0.222015 -0.731852 -79.7006 -46.2547 93.9109 -32.2959 4.68265 -27.7563 10.6543 35.411 -21.4056 -6.00586 -0.0550182 -5.44913 3.99347 1.32282 -2.5755 -18.6219 1.15728 4.68292 
-70.5616 94.8967 59.6612 103.646 59.7508 78.9089 -175.727 -9.74861 90.026 -22.7747 25.0855 4.98478 64.5693 6.79471 10.2743 50.1496 -2.06716 4.38665 176.141 19.4549 84.2204 -9.5712 5.34832 -0.223546 56.0913 9.40551 23.5798 37.9446 -2.24967 -3.1517 -0.886676 7.37069 -90.0467 12.1342 -1.78463 0.103473 0.464494 -1.77834 0.181931 -22.08 -1.7332 -0.437827 -2.06738 -1.73319 -0.437834 104.416 -47.7227 -78.5508 35.6193 1.42863 6.34927 -0.981135 -18.1926 -11.1895 -3.6821 -0.184 0.804018 -79.7107 -46.4068 93.901 -31.2577 6.41373 -29.43 12.7127 31.3214 -27.1337 -2.07532 -0.0897146 -5.52964 3.5582 0.844105 -1.92547 -18.5608 0.679995 3.80222 
